<mxfile host="app.diagrams.net" modified="2024-11-09T09:20:11.707Z" agent="Mozilla/5.0 (Windows NT 10.0; Win64; x64) AppleWebKit/537.36 (KHTML, like Gecko) Chrome/130.0.0.0 Safari/537.36 Edg/130.0.0.0" etag="7WVcU2MdAVjQGuRVDxE9" version="24.5.4" type="github">
  <diagram name="第 1 页" id="cQxQDzoEJIarQof34rgU">
    <mxGraphModel dx="1213" dy="627" grid="1" gridSize="10" guides="1" tooltips="1" connect="1" arrows="1" fold="1" page="1" pageScale="1" pageWidth="827" pageHeight="1169" math="0" shadow="0">
      <root>
        <mxCell id="0" />
        <mxCell id="1" parent="0" />
        <mxCell id="Hms7Tqz9vvrfwDXkqyMu-6" value="" style="edgeStyle=orthogonalEdgeStyle;rounded=0;orthogonalLoop=1;jettySize=auto;html=1;" edge="1" parent="1" source="Hms7Tqz9vvrfwDXkqyMu-18" target="Hms7Tqz9vvrfwDXkqyMu-5">
          <mxGeometry relative="1" as="geometry" />
        </mxCell>
        <mxCell id="Hms7Tqz9vvrfwDXkqyMu-1" value="搜索进入小程序" style="rounded=0;whiteSpace=wrap;html=1;" vertex="1" parent="1">
          <mxGeometry x="160" y="120" width="120" height="40" as="geometry" />
        </mxCell>
        <mxCell id="Hms7Tqz9vvrfwDXkqyMu-9" value="" style="edgeStyle=orthogonalEdgeStyle;rounded=0;orthogonalLoop=1;jettySize=auto;html=1;" edge="1" parent="1" source="Hms7Tqz9vvrfwDXkqyMu-5" target="Hms7Tqz9vvrfwDXkqyMu-8">
          <mxGeometry relative="1" as="geometry" />
        </mxCell>
        <mxCell id="Hms7Tqz9vvrfwDXkqyMu-10" value="公司" style="edgeLabel;html=1;align=center;verticalAlign=middle;resizable=0;points=[];" vertex="1" connectable="0" parent="Hms7Tqz9vvrfwDXkqyMu-9">
          <mxGeometry x="-0.1083" y="-2" relative="1" as="geometry">
            <mxPoint as="offset" />
          </mxGeometry>
        </mxCell>
        <mxCell id="Hms7Tqz9vvrfwDXkqyMu-12" value="" style="edgeStyle=orthogonalEdgeStyle;rounded=0;orthogonalLoop=1;jettySize=auto;html=1;" edge="1" parent="1" source="Hms7Tqz9vvrfwDXkqyMu-5" target="Hms7Tqz9vvrfwDXkqyMu-11">
          <mxGeometry relative="1" as="geometry" />
        </mxCell>
        <mxCell id="Hms7Tqz9vvrfwDXkqyMu-13" value="员工" style="edgeLabel;html=1;align=center;verticalAlign=middle;resizable=0;points=[];" vertex="1" connectable="0" parent="Hms7Tqz9vvrfwDXkqyMu-12">
          <mxGeometry y="-2" relative="1" as="geometry">
            <mxPoint as="offset" />
          </mxGeometry>
        </mxCell>
        <mxCell id="Hms7Tqz9vvrfwDXkqyMu-5" value="选择身份" style="rhombus;whiteSpace=wrap;html=1;rounded=0;" vertex="1" parent="1">
          <mxGeometry x="160" y="280" width="120" height="40" as="geometry" />
        </mxCell>
        <mxCell id="Hms7Tqz9vvrfwDXkqyMu-20" value="" style="edgeStyle=orthogonalEdgeStyle;rounded=0;orthogonalLoop=1;jettySize=auto;html=1;" edge="1" parent="1" source="Hms7Tqz9vvrfwDXkqyMu-8" target="Hms7Tqz9vvrfwDXkqyMu-19">
          <mxGeometry relative="1" as="geometry" />
        </mxCell>
        <mxCell id="Hms7Tqz9vvrfwDXkqyMu-8" value="输入公司基本信息" style="whiteSpace=wrap;html=1;rounded=0;" vertex="1" parent="1">
          <mxGeometry x="361" y="280" width="120" height="40" as="geometry" />
        </mxCell>
        <mxCell id="Hms7Tqz9vvrfwDXkqyMu-30" value="" style="edgeStyle=orthogonalEdgeStyle;rounded=0;orthogonalLoop=1;jettySize=auto;html=1;" edge="1" parent="1" source="Hms7Tqz9vvrfwDXkqyMu-11" target="Hms7Tqz9vvrfwDXkqyMu-29">
          <mxGeometry relative="1" as="geometry" />
        </mxCell>
        <mxCell id="Hms7Tqz9vvrfwDXkqyMu-11" value="选择并加入公司" style="whiteSpace=wrap;html=1;rounded=0;" vertex="1" parent="1">
          <mxGeometry x="160" y="360" width="120" height="40" as="geometry" />
        </mxCell>
        <mxCell id="Hms7Tqz9vvrfwDXkqyMu-17" value="" style="edgeStyle=orthogonalEdgeStyle;rounded=0;orthogonalLoop=1;jettySize=auto;html=1;" edge="1" parent="1" source="Hms7Tqz9vvrfwDXkqyMu-1" target="Hms7Tqz9vvrfwDXkqyMu-18">
          <mxGeometry relative="1" as="geometry">
            <mxPoint x="220" y="160" as="sourcePoint" />
            <mxPoint x="220" y="200" as="targetPoint" />
          </mxGeometry>
        </mxCell>
        <mxCell id="Hms7Tqz9vvrfwDXkqyMu-18" value="同意并微信登录" style="rounded=0;whiteSpace=wrap;html=1;" vertex="1" parent="1">
          <mxGeometry x="160" y="200" width="120" height="40" as="geometry" />
        </mxCell>
        <mxCell id="Hms7Tqz9vvrfwDXkqyMu-22" value="" style="edgeStyle=orthogonalEdgeStyle;rounded=0;orthogonalLoop=1;jettySize=auto;html=1;" edge="1" parent="1" source="Hms7Tqz9vvrfwDXkqyMu-19" target="Hms7Tqz9vvrfwDXkqyMu-21">
          <mxGeometry relative="1" as="geometry" />
        </mxCell>
        <mxCell id="Hms7Tqz9vvrfwDXkqyMu-19" value="平台管理员审核" style="whiteSpace=wrap;html=1;rounded=0;" vertex="1" parent="1">
          <mxGeometry x="520" y="280" width="120" height="40" as="geometry" />
        </mxCell>
        <mxCell id="Hms7Tqz9vvrfwDXkqyMu-23" style="edgeStyle=orthogonalEdgeStyle;rounded=0;orthogonalLoop=1;jettySize=auto;html=1;exitX=0.5;exitY=0;exitDx=0;exitDy=0;entryX=0.5;entryY=0;entryDx=0;entryDy=0;" edge="1" parent="1" source="Hms7Tqz9vvrfwDXkqyMu-21" target="Hms7Tqz9vvrfwDXkqyMu-8">
          <mxGeometry relative="1" as="geometry">
            <Array as="points">
              <mxPoint x="740" y="220" />
              <mxPoint x="420" y="220" />
            </Array>
          </mxGeometry>
        </mxCell>
        <mxCell id="Hms7Tqz9vvrfwDXkqyMu-25" value="否" style="edgeLabel;html=1;align=center;verticalAlign=middle;resizable=0;points=[];" vertex="1" connectable="0" parent="Hms7Tqz9vvrfwDXkqyMu-23">
          <mxGeometry x="-0.0288" y="1" relative="1" as="geometry">
            <mxPoint as="offset" />
          </mxGeometry>
        </mxCell>
        <mxCell id="Hms7Tqz9vvrfwDXkqyMu-27" value="" style="edgeStyle=orthogonalEdgeStyle;rounded=0;orthogonalLoop=1;jettySize=auto;html=1;" edge="1" parent="1" source="Hms7Tqz9vvrfwDXkqyMu-21" target="Hms7Tqz9vvrfwDXkqyMu-26">
          <mxGeometry relative="1" as="geometry" />
        </mxCell>
        <mxCell id="Hms7Tqz9vvrfwDXkqyMu-28" value="是" style="edgeLabel;html=1;align=center;verticalAlign=middle;resizable=0;points=[];" vertex="1" connectable="0" parent="Hms7Tqz9vvrfwDXkqyMu-27">
          <mxGeometry x="-0.1417" y="3" relative="1" as="geometry">
            <mxPoint as="offset" />
          </mxGeometry>
        </mxCell>
        <mxCell id="Hms7Tqz9vvrfwDXkqyMu-21" value="是否通过" style="rhombus;whiteSpace=wrap;html=1;rounded=0;" vertex="1" parent="1">
          <mxGeometry x="680" y="280" width="120" height="40" as="geometry" />
        </mxCell>
        <mxCell id="Hms7Tqz9vvrfwDXkqyMu-26" value="公司成功入驻" style="whiteSpace=wrap;html=1;rounded=0;" vertex="1" parent="1">
          <mxGeometry x="840" y="280" width="120" height="40" as="geometry" />
        </mxCell>
        <mxCell id="Hms7Tqz9vvrfwDXkqyMu-32" value="" style="edgeStyle=orthogonalEdgeStyle;rounded=0;orthogonalLoop=1;jettySize=auto;html=1;" edge="1" parent="1" source="Hms7Tqz9vvrfwDXkqyMu-29" target="Hms7Tqz9vvrfwDXkqyMu-31">
          <mxGeometry relative="1" as="geometry" />
        </mxCell>
        <mxCell id="Hms7Tqz9vvrfwDXkqyMu-29" value="输入员工基本信息" style="whiteSpace=wrap;html=1;rounded=0;" vertex="1" parent="1">
          <mxGeometry x="160" y="440" width="120" height="40" as="geometry" />
        </mxCell>
        <mxCell id="Hms7Tqz9vvrfwDXkqyMu-31" value="成功加入公司" style="whiteSpace=wrap;html=1;rounded=0;" vertex="1" parent="1">
          <mxGeometry x="160" y="520" width="120" height="40" as="geometry" />
        </mxCell>
        <mxCell id="Hms7Tqz9vvrfwDXkqyMu-35" value="" style="edgeStyle=orthogonalEdgeStyle;rounded=0;orthogonalLoop=1;jettySize=auto;html=1;" edge="1" parent="1" source="Hms7Tqz9vvrfwDXkqyMu-33" target="Hms7Tqz9vvrfwDXkqyMu-34">
          <mxGeometry relative="1" as="geometry" />
        </mxCell>
        <mxCell id="Hms7Tqz9vvrfwDXkqyMu-33" value="员工" style="ellipse;whiteSpace=wrap;html=1;aspect=fixed;" vertex="1" parent="1">
          <mxGeometry x="160" y="590" width="60" height="60" as="geometry" />
        </mxCell>
        <mxCell id="Hms7Tqz9vvrfwDXkqyMu-38" value="" style="edgeStyle=orthogonalEdgeStyle;rounded=0;orthogonalLoop=1;jettySize=auto;html=1;" edge="1" parent="1" source="Hms7Tqz9vvrfwDXkqyMu-34" target="Hms7Tqz9vvrfwDXkqyMu-37">
          <mxGeometry relative="1" as="geometry" />
        </mxCell>
        <mxCell id="Hms7Tqz9vvrfwDXkqyMu-34" value="阅读公司规章制度或培训内容" style="whiteSpace=wrap;html=1;" vertex="1" parent="1">
          <mxGeometry x="261" y="590" width="120" height="60" as="geometry" />
        </mxCell>
        <mxCell id="Hms7Tqz9vvrfwDXkqyMu-40" value="" style="edgeStyle=orthogonalEdgeStyle;rounded=0;orthogonalLoop=1;jettySize=auto;html=1;" edge="1" parent="1" source="Hms7Tqz9vvrfwDXkqyMu-37" target="Hms7Tqz9vvrfwDXkqyMu-39">
          <mxGeometry relative="1" as="geometry" />
        </mxCell>
        <mxCell id="Hms7Tqz9vvrfwDXkqyMu-37" value="上传签名确认已阅读" style="whiteSpace=wrap;html=1;" vertex="1" parent="1">
          <mxGeometry x="420" y="590" width="120" height="60" as="geometry" />
        </mxCell>
        <mxCell id="Hms7Tqz9vvrfwDXkqyMu-39" value="发送信息给公司告知员工已阅读" style="whiteSpace=wrap;html=1;" vertex="1" parent="1">
          <mxGeometry x="580" y="590" width="120" height="60" as="geometry" />
        </mxCell>
      </root>
    </mxGraphModel>
  </diagram>
</mxfile>
